<?xml version="1.0" standalone="no"?>
<!DOCTYPE svg PUBLIC "-//W3C//DTD SVG 20010904//EN"
 "http://www.w3.org/TR/2001/REC-SVG-20010904/DTD/svg10.dtd">
<svg version="1.0" xmlns="http://www.w3.org/2000/svg"
 width="404.000000pt" height="404.000000pt" viewBox="0 0 404.000000 404.000000"
 preserveAspectRatio="xMidYMid meet">
<metadata>
Created by potrace 1.11, written by Peter Selinger 2001-2013
</metadata>
<g transform="translate(0.000000,404.000000) scale(0.100000,-0.100000)"
fill="#000000" stroke="none">
<path d="M2572 3710 l-329 -329 19 -68 c10 -37 32 -120 49 -183 17 -63 42
-155 55 -205 14 -49 27 -98 29 -108 2 -10 20 -75 38 -145 19 -70 38 -142 42
-159 3 -18 8 -33 10 -33 1 0 137 -36 301 -81 165 -44 358 -95 429 -114 72 -19
139 -37 151 -41 16 -4 80 55 347 322 180 179 327 334 327 343 0 9 -19 84 -41
166 -22 83 -44 166 -49 185 -13 55 -142 535 -145 538 -2 2 -52 16 -112 32
-105 28 -282 76 -393 106 -30 8 -62 17 -70 19 -8 1 -83 21 -166 44 -84 23
-154 41 -157 41 -3 0 -154 -148 -335 -330z m633 125 c72 -18 166 -44 210 -55
44 -12 87 -23 95 -25 38 -9 192 -54 195 -57 1 -2 14 -46 28 -98 14 -52 60
-223 102 -379 l77 -284 -280 -280 -281 -281 -58 13 c-32 8 -78 20 -103 27 -25
8 -164 46 -310 84 -146 39 -272 73 -281 75 -10 4 -27 51 -53 148 -21 78 -51
189 -67 247 -16 58 -31 114 -34 125 -2 11 -18 71 -35 134 l-31 115 282 282
282 282 66 -19 c36 -11 125 -35 196 -54z"/>
<path d="M841 3226 l-332 -332 61 -225 c33 -123 81 -300 106 -394 25 -93 52
-195 61 -227 l15 -56 102 -26 c55 -14 258 -68 451 -120 l349 -94 330 329 329
329 -37 138 c-20 75 -48 180 -62 232 -41 150 -82 306 -112 422 -25 101 -29
109 -57 118 -41 13 -704 191 -734 196 -13 3 -32 9 -43 15 -10 5 -18 7 -18 5 0
-3 -17 1 -39 8 l-38 14 -332 -332z m567 141 c108 -30 279 -76 380 -103 l183
-49 15 -51 c8 -28 17 -60 19 -70 4 -19 90 -338 143 -536 l30 -108 -281 -281
c-221 -221 -285 -280 -301 -276 -12 2 -106 28 -211 56 -104 29 -197 54 -205
56 -62 15 -326 87 -328 90 -2 2 -37 125 -57 205 -3 8 -20 74 -39 145 -20 72
-52 194 -73 272 l-38 143 280 280 c154 154 281 280 283 280 1 0 92 -24 200
-53z"/>
<path d="M2099 1961 l-327 -328 13 -49 c8 -27 26 -94 40 -149 15 -55 43 -163
64 -240 21 -77 58 -212 81 -300 24 -88 44 -161 44 -162 1 -1 121 -34 266 -73
146 -39 288 -77 315 -85 104 -30 291 -78 307 -79 10 -1 155 137 343 324 304
304 326 327 321 355 -2 17 -39 156 -80 310 -42 154 -92 343 -113 420 -20 77
-37 141 -39 143 -3 5 -890 242 -902 242 -4 -1 -154 -148 -333 -329z m531 154
c26 -6 282 -75 330 -90 25 -7 93 -25 151 -40 59 -15 111 -30 117 -34 7 -5 159
-551 203 -731 l8 -35 -277 -277 c-152 -153 -282 -278 -289 -278 -14 0 -753
197 -759 202 -3 4 -53 189 -60 221 -1 10 -8 32 -14 50 -19 58 -131 489 -128
493 2 2 127 129 278 282 l275 277 75 -18 c41 -11 82 -20 90 -22z"/>
<path d="M2303 1757 l-211 -212 24 -85 c13 -47 26 -95 28 -107 3 -13 9 -37 15
-55 6 -18 29 -100 50 -181 22 -82 41 -150 43 -151 2 -1 57 -17 123 -34 66 -18
195 -52 287 -77 l167 -45 211 211 c115 116 210 215 210 221 0 6 -30 121 -66
257 -36 135 -67 251 -69 256 -15 64 -6 59 -178 105 -89 23 -209 55 -267 71
-58 16 -116 32 -130 34 -22 4 -54 -24 -237 -208z"/>
<path d="M330 1468 c-179 -180 -326 -329 -328 -332 -2 -2 17 -80 42 -173 25
-92 55 -202 66 -243 11 -41 34 -126 51 -189 17 -62 32 -120 34 -130 5 -27 44
-164 47 -166 2 -1 82 -23 178 -49 96 -25 225 -60 285 -76 262 -71 382 -102
411 -107 28 -4 50 15 345 311 174 173 321 321 327 329 10 11 7 35 -13 108 -14
52 -28 101 -30 109 -11 47 -186 694 -188 695 -1 1 -65 18 -142 39 -77 20 -266
71 -420 112 -154 41 -293 78 -310 82 -29 8 -41 -3 -355 -320z m522 151 c84
-22 160 -43 168 -45 8 -2 56 -14 105 -28 50 -13 144 -39 210 -56 66 -17 122
-33 124 -35 2 -2 19 -62 38 -132 18 -70 49 -184 67 -253 19 -69 49 -182 67
-252 l34 -128 -281 -281 -281 -281 -209 57 c-115 31 -216 58 -224 60 -17 4
-176 47 -269 72 l-64 18 -38 145 c-22 80 -41 154 -43 165 -6 22 -65 243 -101
370 l-22 80 281 283 c155 155 282 282 283 282 1 0 71 -18 155 -41z"/>
</g>
</svg>
